<svg id="レイヤー_2" data-name="レイヤー 2" xmlns="http://www.w3.org/2000/svg" xmlns:xlink="http://www.w3.org/1999/xlink" viewBox="0 0 595.89 438.14"><defs><style>.cls-1,.cls-2{fill:none;}.cls-2,.cls-4{stroke:#666;stroke-miterlimit:10;stroke-width:3px;}.cls-2{stroke-linecap:round;}.cls-3{fill:#666;}.cls-4{fill:#fff;}.cls-5{clip-path:url(#clip-path);}.cls-6{clip-path:url(#clip-path-2);}.cls-7{font-size:21px;}.cls-7,.cls-9{font-family:Hiragino Kaku Gothic ProN;}.cls-8{letter-spacing:-1px;}.cls-9{font-size:18px;}.cls-10{letter-spacing:-2px;}.cls-11{letter-spacing:-3px;}</style><clipPath id="clip-path" transform="translate(-2.84 -6.77)"><rect class="cls-1" x="421.36" y="214.01" width="165.33" height="95.33"/></clipPath><clipPath id="clip-path-2" transform="translate(-2.84 -6.77)"><rect class="cls-1" x="421.36" y="214.01" width="165.33" height="95.33"/></clipPath></defs><title>accessmap</title><line class="cls-2" x1="1.5" y1="103.96" x2="594.39" y2="103.96"/><line class="cls-2" x1="119.67" y1="1.5" x2="119.67" y2="436.64"/><line class="cls-2" x1="4.83" y1="323.53" x2="591.06" y2="323.53"/><circle class="cls-3" cx="97.05" cy="146.55" r="7.98"/><circle class="cls-3" cx="296.28" cy="362.12" r="7.98"/><circle class="cls-3" cx="139.08" cy="302.58" r="7.98"/><circle class="cls-3" cx="368.51" cy="362.12" r="19.96"/><polygon class="cls-4" points="589.4 304.9 455.3 304.9 396.36 337.99 412.99 304.9 412.99 204.92 589.4 204.92 589.4 304.9"/><g class="cls-5"><rect x="432.07" y="245.66" width="4.5" height="46.75"/><g class="cls-6"><path d="M487.63,258.15V226.68h5.06V299h-5.06v-3.87c-2.58,3-5.07,4.42-7.45,4.47a9.52,9.52,0,0,1-9.48-5.74c-2.33-4.83-3.33-7.5-3.28-17.29a47.74,47.74,0,0,1,.89-11.33c1.89-7.89,5.55-10.22,9.22-11.22,3.33,0,5.5-.17,10.1,4.15M480,295.51c4.67,0,6.4-3.92,7-11.67a160.15,160.15,0,0,0-.5-19c-0.17-1-2.33-6.5-6.33-6.67-4.86-.2-6.5,4-7.17,6.33s-1.17,17-.33,21c0.33,3.67,2.67,10,7.33,10" transform="translate(-2.84 -6.77)"/><path d="M528.36,280.38l-19.58.21c-0.23,5.62,1.25,11.33,3.42,13.33a5.57,5.57,0,0,0,7.17.92c2.75-1.5,3.64-7.61,3.67-10.5l5.41-.06c-0.08,9.23-4.91,16.39-12.42,16.38a12.08,12.08,0,0,1-9.49-5.24c-2.45-3.39-3.12-8-3.49-14.24A39.08,39.08,0,0,1,506.14,264c2.39-4.29,6.1-6.29,10.06-6.29a10.57,10.57,0,0,1,7.83,3.67c3.37,4.2,4.33,9,4.33,16.5v2.54Zm-19.67-3.71h14.5c0-5.25.17-7.75-2-12.17-3.83-6.25-9.17-1.83-10.5,1.17-1.61,3.63-2,6.67-2,11" transform="translate(-2.84 -6.77)"/><path d="M559.86,269.43h-4.75s-0.24-5.3,1.75-8a10.35,10.35,0,0,1,17.25.42c1.71,2.53,1.67,6,1.67,11.71L575.7,289.3c0,5.85-.56,7.5,3,7.5v3.31c-6.31.81-6.67-3.72-6.67-3.72-1.64,4.34-7.49,4.71-10.7,4.16-5.12-.87-7.31-4.44-7.31-11.37,0-7.19,1.95-11,8.59-13a65.67,65.67,0,0,0,6.46-2.15,3.82,3.82,0,0,0,2.42-3.77c0-2.15.63-4.69-1.87-7.27a5.56,5.56,0,0,0-7.92-.17c-1.92,1.83-1.83,3.71-1.83,6.58m11.27,7.63c-0.62.25-2,.81-3.56,1.38a35.26,35.26,0,0,0-4.5,1.81c-5.06,2.5-4.56,6.55-4.56,9.62s0.44,6.56,4.94,6.56c5.38,0,6.81-3.69,7.19-5.25a33.84,33.84,0,0,0,.44-6.87Z" transform="translate(-2.84 -6.77)"/><path d="M455,277a1.72,1.72,0,0,1-1.52-.58,1.47,1.47,0,0,1-.57-1.24,1.77,1.77,0,0,1,.38-1.38,1.54,1.54,0,0,1,1.33-.66,2.1,2.1,0,0,1,1.61.44,1.83,1.83,0,0,1,.57,1.31,1.77,1.77,0,0,1-.38,1.38A1.81,1.81,0,0,1,455,277" transform="translate(-2.84 -6.77)"/><path d="M541.73,277a1.71,1.71,0,0,1-1.51-.58,1.48,1.48,0,0,1-.57-1.24,1.78,1.78,0,0,1,.38-1.39,1.55,1.55,0,0,1,1.32-.65,2.11,2.11,0,0,1,1.61.44,1.85,1.85,0,0,1,.57,1.31,1.78,1.78,0,0,1-.38,1.38,1.8,1.8,0,0,1-1.42.73" transform="translate(-2.84 -6.77)"/><path d="M437.33,242.77a2.16,2.16,0,0,1-1.91-.73,1.85,1.85,0,0,1-.71-1.56,2.23,2.23,0,0,1,.48-1.74,1.94,1.94,0,0,1,1.67-.83,2.65,2.65,0,0,1,2,.55,2.31,2.31,0,0,1,.72,1.65,2.23,2.23,0,0,1-.48,1.74,2.28,2.28,0,0,1-1.79.92" transform="translate(-2.84 -6.77)"/></g></g><rect class="cls-4" x="41.16" y="82.17" width="248.84" height="45.24"/><text class="cls-7" transform="translate(48.88 113.18)">地下鉄13<tspan x="90.59" y="0">丁</tspan><tspan x="110.65" y="0">目</tspan><tspan x="130.68" y="0">駅 2</tspan><tspan x="172.47" y="0">番</tspan><tspan class="cls-8" x="192.97" y="0">出</tspan><tspan x="212.96" y="0">口</tspan></text><text class="cls-9" transform="translate(165.35 370.1)"><tspan class="cls-10">セ</tspan><tspan class="cls-10" x="15.97" y="0">イ</tspan><tspan x="31.43" y="0">コ</tspan><tspan class="cls-8" x="48.6" y="0">ー</tspan><tspan class="cls-8" x="65.09" y="0">マ</tspan><tspan class="cls-8" x="81.52" y="0">ー</tspan><tspan class="cls-8" x="97.56" y="0">ト</tspan></text><text class="cls-9" transform="translate(21.79 174.91)">東<tspan x="18" y="0">光</tspan><tspan class="cls-10" x="35.23" y="0">ス</tspan><tspan class="cls-11" x="50.36" y="0">ト</tspan><tspan x="64.85" y="0">ア</tspan></text><text class="cls-9" transform="translate(152.99 310.56)">ENEOS</text></svg>