<?xml version="1.0" encoding="utf-8"?>
<!-- Generator: Adobe Illustrator 24.1.0, SVG Export Plug-In . SVG Version: 6.00 Build 0)  -->
<svg version="1.1" id="レイヤー_1" xmlns="http://www.w3.org/2000/svg" xmlns:xlink="http://www.w3.org/1999/xlink" x="0px"
	 y="0px" viewBox="0 0 533 534" style="enable-background:new 0 0 533 534;" xml:space="preserve">
<style type="text/css">
	.st0{fill:#FFFFFF;stroke:#000000;stroke-miterlimit:10;}
	.st1{fill:#808080;}
	.st2{fill:#FFFFFF;}
</style>
<rect x="-0.5" class="st0" width="532.8" height="533.8"/>
<rect x="-0.5" class="st1" width="532.8" height="533.8"/>
<g>
	<path class="st2" d="M417.9,267.9c0-84-68.1-152-152-152s-152,68.1-152,152c0,75.9,55.6,138.8,128.3,150.2V311.9h-38.6v-43.9h38.6
		v-33.5c0-38.1,22.7-59.1,57.4-59.1c16.6,0,34,3,34,3v37.4h-19.2c-18.9,0-24.8,11.7-24.8,23.7v28.5h42.2l-6.7,43.9h-35.4v106.2
		C362.3,406.7,417.9,343.8,417.9,267.9z"/>
</g>
</svg>
