<?xml version="1.0" encoding="utf-8"?>
<!-- Generator: Adobe Illustrator 24.1.0, SVG Export Plug-In . SVG Version: 6.00 Build 0)  -->
<svg version="1.1" id="レイヤー_1" xmlns="http://www.w3.org/2000/svg" xmlns:xlink="http://www.w3.org/1999/xlink" x="0px"
	 y="0px" viewBox="0 0 533 534" style="enable-background:new 0 0 533 534;" xml:space="preserve">
<style type="text/css">
	.st0{fill:#1877F2;}
	.st1{fill:#FFFFFF;}
</style>
<g>
	<path class="st0" d="M418,266c0-83.9-68.1-152-152-152s-152,68.1-152,152c0,75.9,55.6,138.7,128.2,150.1V309.9h-38.6V266h38.6
		v-33.5c0-38.1,22.7-59.1,57.4-59.1c16.6,0,34,3,34,3v37.4h-19.2c-18.9,0-24.8,11.7-24.8,23.7V266h42.2l-6.7,43.9h-35.4v106.2
		C362.4,404.7,418,341.9,418,266z"/>
	<path class="st1" d="M325.2,309.9l6.7-43.9h-42.2v-28.5c0-12,5.9-23.7,24.8-23.7h19.2v-37.4c0,0-17.4-3-34-3
		c-34.7,0-57.4,21-57.4,59.1V266h-38.6v43.9h38.6v106.2c7.7,1.2,15.7,1.8,23.7,1.8s16-0.6,23.7-1.8V309.9H325.2z"/>
</g>
</svg>
