<?xml version="1.0" encoding="utf-8"?>
<!-- Generator: Adobe Illustrator 24.1.0, SVG Export Plug-In . SVG Version: 6.00 Build 0)  -->
<svg version="1.1" id="レイヤー_1" xmlns="http://www.w3.org/2000/svg" xmlns:xlink="http://www.w3.org/1999/xlink" x="0px"
	 y="0px" viewBox="0 0 491 491" style="enable-background:new 0 0 491 491;" xml:space="preserve">
<style type="text/css">
	.st0{fill:#808080;enable-background:new    ;}
	.st1{fill:#FFFFFF;}
</style>
<rect class="st0" width="491.1" height="491.1"/>
<image style="display:none;overflow:visible;enable-background:new    ;" width="1029" height="1029" id="Gradient_xA0_画像_2_" xlink:href="8BC1F9357568013E.png"  transform="matrix(0.2391 0 0 0.2391 123 123)">
</image>
<g>
	<path class="st1" d="M246,123c-33.4,0-37.6,0.1-50.7,0.7c-13.1,0.6-22,2.7-29.9,5.7c-8.1,3.1-14.9,7.3-21.8,14.2
		s-11,13.7-14.2,21.8c-3,7.8-5.1,16.8-5.7,29.9c-0.6,13.1-0.7,17.3-0.7,50.7c0,33.4,0.1,37.6,0.7,50.7c0.6,13.1,2.7,22,5.7,29.9
		c3.1,8.1,7.3,14.9,14.2,21.8c6.8,6.8,13.7,11,21.8,14.2c7.8,3,16.8,5.1,29.9,5.7c13.1,0.6,17.3,0.7,50.7,0.7s37.6-0.1,50.7-0.7
		c13.1-0.6,22-2.7,29.9-5.7c8.1-3.1,14.9-7.4,21.8-14.2s11-13.7,14.2-21.8c3-7.8,5.1-16.8,5.7-29.9c0.6-13.1,0.7-17.3,0.7-50.7
		c0-33.4-0.1-37.6-0.7-50.7c-0.6-13.1-2.7-22-5.7-29.9c-3.1-8.1-7.4-14.9-14.2-21.8c-6.8-6.8-13.7-11-21.8-14.2
		c-7.8-3-16.8-5.1-29.9-5.7C283.6,123.1,279.4,123,246,123L246,123L246,123z M246,145.2c32.8,0,36.7,0.1,49.7,0.7
		c12,0.5,18.5,2.6,22.8,4.2c5.7,2.2,9.8,4.9,14.1,9.2c4.3,4.3,7,8.4,9.2,14.1c1.7,4.3,3.7,10.8,4.2,22.8c0.6,13,0.7,16.9,0.7,49.7
		c0,32.8-0.1,36.7-0.7,49.7c-0.5,12-2.6,18.5-4.2,22.8c-2.2,5.7-4.9,9.8-9.2,14.1c-4.3,4.3-8.4,7-14.1,9.2
		c-4.3,1.7-10.8,3.7-22.8,4.2c-13,0.6-16.9,0.7-49.7,0.7s-36.7-0.1-49.7-0.7c-12-0.5-18.5-2.5-22.8-4.2c-5.7-2.2-9.8-4.9-14.1-9.2
		s-7-8.4-9.2-14.1c-1.7-4.3-3.7-10.8-4.2-22.8c-0.6-13-0.7-16.9-0.7-49.7c0-32.8,0.1-36.7,0.7-49.7c0.5-12,2.6-18.5,4.2-22.8
		c2.2-5.7,4.9-9.8,9.2-14.1s8.4-7,14.1-9.2c4.3-1.7,10.8-3.7,22.8-4.2C209.3,145.3,213.2,145.2,246,145.2"/>
	<path class="st1" d="M246,287c-22.6,0-41-18.4-41-41s18.4-41,41-41c22.6,0,41,18.4,41,41S268.6,287,246,287L246,287z M246,182.8
		c-34.9,0-63.2,28.3-63.2,63.2s28.3,63.2,63.2,63.2c34.9,0,63.2-28.3,63.2-63.2S280.9,182.8,246,182.8L246,182.8z"/>
	<path class="st1" d="M326.4,180.3c0,8.2-6.6,14.8-14.8,14.8s-14.8-6.6-14.8-14.8s6.6-14.8,14.8-14.8
		C319.8,165.6,326.4,172.2,326.4,180.3L326.4,180.3z"/>
</g>
</svg>
